<mxfile host="app.diagrams.net" agent="Mozilla/5.0 (Macintosh; Intel Mac OS X 10_15_7) AppleWebKit/537.36 (KHTML, like Gecko) Chrome/131.0.0.0 Safari/537.36" version="26.0.5">
  <diagram name="Page-1" id="XP6ytF0U6wGtAc1RTada">
    <mxGraphModel>
      <root>
        <mxCell id="0" />
        <mxCell id="1" parent="0" />
        <mxCell id="2" value="Database" style="whiteSpace=wrap;strokeWidth=2;" vertex="1" parent="1">
          <mxGeometry x="560" y="8" width="954" height="543" as="geometry" />
        </mxCell>
        <mxCell id="3" value="Admin" style="whiteSpace=wrap;strokeWidth=2;" vertex="1" parent="1">
          <mxGeometry x="8" y="375" width="369" height="124" as="geometry" />
        </mxCell>
        <mxCell id="4" value="User" style="whiteSpace=wrap;strokeWidth=2;" vertex="1" parent="1">
          <mxGeometry x="8" y="23" width="369" height="332" as="geometry" />
        </mxCell>
        <mxCell id="5" value="readOnly" style="whiteSpace=wrap;strokeWidth=2;" vertex="1" parent="1">
          <mxGeometry x="36" y="58" width="124" height="54" as="geometry" />
        </mxCell>
        <mxCell id="6" value="UserPage" style="whiteSpace=wrap;strokeWidth=2;" vertex="1" parent="1">
          <mxGeometry x="221" y="142" width="125" height="54" as="geometry" />
        </mxCell>
        <mxCell id="7" value="update" style="whiteSpace=wrap;strokeWidth=2;" vertex="1" parent="1">
          <mxGeometry x="43" y="162" width="110" height="54" as="geometry" />
        </mxCell>
        <mxCell id="8" value="readWrite" style="whiteSpace=wrap;strokeWidth=2;" vertex="1" parent="1">
          <mxGeometry x="33" y="266" width="131" height="54" as="geometry" />
        </mxCell>
        <mxCell id="9" value="AdminPage" style="whiteSpace=wrap;strokeWidth=2;" vertex="1" parent="1">
          <mxGeometry x="214" y="410" width="138" height="54" as="geometry" />
        </mxCell>
        <mxCell id="10" value="delete" style="whiteSpace=wrap;strokeWidth=2;" vertex="1" parent="1">
          <mxGeometry x="45" y="410" width="106" height="54" as="geometry" />
        </mxCell>
        <mxCell id="11" value="UserData" style="whiteSpace=wrap;strokeWidth=2;" vertex="1" parent="1">
          <mxGeometry x="592" y="142" width="125" height="54" as="geometry" />
        </mxCell>
        <mxCell id="12" value="AdminData" style="whiteSpace=wrap;strokeWidth=2;" vertex="1" parent="1">
          <mxGeometry x="585" y="410" width="138" height="54" as="geometry" />
        </mxCell>
        <mxCell id="13" value="UpdatedUserData" style="whiteSpace=wrap;strokeWidth=2;" vertex="1" parent="1">
          <mxGeometry x="922" y="223" width="185" height="54" as="geometry" />
        </mxCell>
        <mxCell id="14" value="UpdatedAdminData" style="whiteSpace=wrap;strokeWidth=2;" vertex="1" parent="1">
          <mxGeometry x="916" y="441" width="199" height="54" as="geometry" />
        </mxCell>
        <mxCell id="15" value="UserSavedData" style="whiteSpace=wrap;strokeWidth=2;" vertex="1" parent="1">
          <mxGeometry x="1314" y="187" width="166" height="54" as="geometry" />
        </mxCell>
        <mxCell id="16" value="AdminSavedData" style="whiteSpace=wrap;strokeWidth=2;" vertex="1" parent="1">
          <mxGeometry x="1308" y="369" width="179" height="54" as="geometry" />
        </mxCell>
        <mxCell id="17" value="UserInterface" style="whiteSpace=wrap;strokeWidth=2;" vertex="1" parent="1">
          <mxGeometry x="1732" y="110" width="157" height="54" as="geometry" />
        </mxCell>
        <mxCell id="18" value="AdminInterface" style="whiteSpace=wrap;strokeWidth=2;" vertex="1" parent="1">
          <mxGeometry x="1725" y="410" width="170" height="54" as="geometry" />
        </mxCell>
        <mxCell id="19" value="" style="curved=1;startArrow=none;endArrow=block;exitX=1.01;exitY=0.49;entryX=0.25;entryY=-0.01;" edge="1" parent="1" source="5" target="6">
          <mxGeometry relative="1" as="geometry">
            <Array as="points">
              <mxPoint x="189" y="85" />
            </Array>
          </mxGeometry>
        </mxCell>
        <mxCell id="20" value="" style="curved=1;startArrow=none;endArrow=block;exitX=1;exitY=0.27;entryX=0;entryY=0.49;" edge="1" parent="1" source="7" target="6">
          <mxGeometry relative="1" as="geometry">
            <Array as="points">
              <mxPoint x="189" y="169" />
            </Array>
          </mxGeometry>
        </mxCell>
        <mxCell id="21" value="" style="curved=1;startArrow=none;endArrow=block;exitX=0.8;exitY=-0.01;entryX=0.17;entryY=0.99;" edge="1" parent="1" source="8" target="6">
          <mxGeometry relative="1" as="geometry">
            <Array as="points">
              <mxPoint x="189" y="231" />
            </Array>
          </mxGeometry>
        </mxCell>
        <mxCell id="22" value="" style="curved=1;startArrow=none;endArrow=block;exitX=0.86;exitY=0.99;entryX=0.4;entryY=-0.01;" edge="1" parent="1" source="7" target="9">
          <mxGeometry relative="1" as="geometry">
            <Array as="points">
              <mxPoint x="189" y="252" />
            </Array>
          </mxGeometry>
        </mxCell>
        <mxCell id="23" value="" style="curved=1;startArrow=none;endArrow=block;exitX=1;exitY=0.78;entryX=0.35;entryY=-0.01;" edge="1" parent="1" source="8" target="9">
          <mxGeometry relative="1" as="geometry">
            <Array as="points">
              <mxPoint x="189" y="314" />
            </Array>
          </mxGeometry>
        </mxCell>
        <mxCell id="24" value="" style="curved=1;startArrow=none;endArrow=block;exitX=1.01;exitY=0.49;entryX=0;entryY=0.49;" edge="1" parent="1" source="10" target="9">
          <mxGeometry relative="1" as="geometry">
            <Array as="points" />
          </mxGeometry>
        </mxCell>
        <mxCell id="25" value="Query User Data" style="curved=1;startArrow=none;endArrow=block;exitX=1;exitY=0.49;entryX=0;entryY=0.49;" edge="1" parent="1" source="6" target="11">
          <mxGeometry relative="1" as="geometry">
            <Array as="points" />
          </mxGeometry>
        </mxCell>
        <mxCell id="26" value="Query Admin Data" style="curved=1;startArrow=none;endArrow=block;exitX=1;exitY=0.49;entryX=0;entryY=0.49;" edge="1" parent="1" source="9" target="12">
          <mxGeometry relative="1" as="geometry">
            <Array as="points" />
          </mxGeometry>
        </mxCell>
        <mxCell id="27" value="Update User Data" style="curved=1;startArrow=none;endArrow=block;exitX=0.93;exitY=0.99;entryX=0;entryY=0.51;" edge="1" parent="1" source="11" target="13">
          <mxGeometry relative="1" as="geometry">
            <Array as="points">
              <mxPoint x="819" y="250" />
            </Array>
          </mxGeometry>
        </mxCell>
        <mxCell id="28" value="Update Admin Data" style="curved=1;startArrow=none;endArrow=block;exitX=1;exitY=0.73;entryX=0;entryY=0.49;" edge="1" parent="1" source="12" target="14">
          <mxGeometry relative="1" as="geometry">
            <Array as="points">
              <mxPoint x="819" y="468" />
            </Array>
          </mxGeometry>
        </mxCell>
        <mxCell id="29" value="Save User Data" style="curved=1;startArrow=none;endArrow=block;exitX=1;exitY=0.18;entryX=0;entryY=0.49;" edge="1" parent="1" source="13" target="15">
          <mxGeometry relative="1" as="geometry">
            <Array as="points">
              <mxPoint x="1210" y="214" />
            </Array>
          </mxGeometry>
        </mxCell>
        <mxCell id="30" value="Save Admin Data" style="curved=1;startArrow=none;endArrow=block;exitX=0.86;exitY=-0.01;entryX=0;entryY=0.49;" edge="1" parent="1" source="14" target="16">
          <mxGeometry relative="1" as="geometry">
            <Array as="points">
              <mxPoint x="1210" y="396" />
            </Array>
          </mxGeometry>
        </mxCell>
        <mxCell id="31" value="Display User Data" style="curved=1;startArrow=none;endArrow=block;exitX=0.82;exitY=-0.01;entryX=0.08;entryY=-0.01;" edge="1" parent="1" source="11" target="17">
          <mxGeometry relative="1" as="geometry">
            <Array as="points">
              <mxPoint x="819" y="59" />
              <mxPoint x="1620" y="59" />
            </Array>
          </mxGeometry>
        </mxCell>
        <mxCell id="32" value="Display Admin Data" style="curved=1;startArrow=none;endArrow=block;exitX=0.82;exitY=-0.01;entryX=0.21;entryY=-0.01;" edge="1" parent="1" source="12" target="18">
          <mxGeometry relative="1" as="geometry">
            <Array as="points">
              <mxPoint x="819" y="334" />
              <mxPoint x="1620" y="334" />
            </Array>
          </mxGeometry>
        </mxCell>
        <mxCell id="33" value="Interact with User Data" style="curved=1;startArrow=none;endArrow=block;exitX=0.28;exitY=0.99;entryX=1;entryY=0.83;" edge="1" parent="1" source="17" target="13">
          <mxGeometry relative="1" as="geometry">
            <Array as="points">
              <mxPoint x="1620" y="287" />
              <mxPoint x="1210" y="287" />
            </Array>
          </mxGeometry>
        </mxCell>
        <mxCell id="34" value="Interact with Admin Data" style="curved=1;startArrow=none;endArrow=block;exitX=0.06;exitY=0.99;entryX=1;entryY=0.84;" edge="1" parent="1" source="18" target="14">
          <mxGeometry relative="1" as="geometry">
            <Array as="points">
              <mxPoint x="1620" y="504" />
              <mxPoint x="1210" y="504" />
            </Array>
          </mxGeometry>
        </mxCell>
        <mxCell id="35" value="Confirmation Message" style="curved=1;startArrow=none;endArrow=block;exitX=1;exitY=0.49;entryX=0.07;entryY=0.99;" edge="1" parent="1" source="15" target="17">
          <mxGeometry relative="1" as="geometry">
            <Array as="points">
              <mxPoint x="1620" y="214" />
            </Array>
          </mxGeometry>
        </mxCell>
        <mxCell id="36" value="Confirmation Message" style="curved=1;startArrow=none;endArrow=block;exitX=1;exitY=0.49;entryX=0;entryY=0.15;" edge="1" parent="1" source="16" target="18">
          <mxGeometry relative="1" as="geometry">
            <Array as="points">
              <mxPoint x="1620" y="396" />
            </Array>
          </mxGeometry>
        </mxCell>
      </root>
    </mxGraphModel>
  </diagram>
</mxfile>
